<mxfile host="app.diagrams.net" modified="2024-03-27T02:33:23.975Z" agent="Mozilla/5.0 (Windows NT 10.0; Win64; x64) AppleWebKit/537.36 (KHTML, like Gecko) Chrome/123.0.0.0 Safari/537.36" etag="pGSPwUpclDOTcpoaM-iz" version="24.1.0" type="device">
  <diagram id="34R0mZzLAhlzXHcahbkd" name="Page-1">
    <mxGraphModel dx="1050" dy="565" grid="0" gridSize="10" guides="1" tooltips="1" connect="1" arrows="1" fold="1" page="0" pageScale="1" pageWidth="1100" pageHeight="850" math="0" shadow="0">
      <root>
        <mxCell id="0" />
        <mxCell id="1" parent="0" />
        <mxCell id="MtpwYPjAQFPa0YD4QaW7-1" value="System" style="swimlane;whiteSpace=wrap;html=1;fillColor=#d0cee2;strokeColor=#56517e;" parent="1" vertex="1">
          <mxGeometry x="50" y="20" width="350" height="820" as="geometry" />
        </mxCell>
        <mxCell id="GVz6icC06-KffOMO9G0p-3" value="&lt;b&gt;Start&lt;/b&gt;" style="ellipse;whiteSpace=wrap;html=1;fillColor=#fff2cc;strokeColor=#d6b656;" parent="MtpwYPjAQFPa0YD4QaW7-1" vertex="1">
          <mxGeometry x="130" y="30" width="90" height="20" as="geometry" />
        </mxCell>
        <mxCell id="GVz6icC06-KffOMO9G0p-5" value="&lt;b&gt;Available&amp;nbsp;&lt;/b&gt;&lt;div&gt;&lt;b&gt;contest?&lt;/b&gt;&lt;/div&gt;" style="rhombus;whiteSpace=wrap;html=1;fillColor=#76608a;strokeColor=#432D57;fontColor=#ffffff;" parent="MtpwYPjAQFPa0YD4QaW7-1" vertex="1">
          <mxGeometry x="130" y="80" width="90" height="70" as="geometry" />
        </mxCell>
        <mxCell id="wUWmy_-UdDIfka9kt44g-1" style="edgeStyle=orthogonalEdgeStyle;rounded=0;orthogonalLoop=1;jettySize=auto;html=1;exitX=0;exitY=0;exitDx=0;exitDy=0;entryX=0.276;entryY=0.912;entryDx=0;entryDy=0;entryPerimeter=0;" edge="1" parent="MtpwYPjAQFPa0YD4QaW7-1" source="GVz6icC06-KffOMO9G0p-9" target="GVz6icC06-KffOMO9G0p-85">
          <mxGeometry relative="1" as="geometry">
            <mxPoint x="20" y="811" as="targetPoint" />
            <Array as="points">
              <mxPoint x="40" y="173" />
              <mxPoint x="40" y="480" />
              <mxPoint x="38" y="480" />
              <mxPoint x="38" y="799" />
              <mxPoint x="145" y="799" />
            </Array>
          </mxGeometry>
        </mxCell>
        <mxCell id="wUWmy_-UdDIfka9kt44g-2" value="&lt;b&gt;NO&lt;/b&gt;" style="edgeLabel;html=1;align=center;verticalAlign=middle;resizable=0;points=[];" vertex="1" connectable="0" parent="wUWmy_-UdDIfka9kt44g-1">
          <mxGeometry x="-0.8702" y="1" relative="1" as="geometry">
            <mxPoint as="offset" />
          </mxGeometry>
        </mxCell>
        <mxCell id="GVz6icC06-KffOMO9G0p-9" value="&lt;b&gt;Launch&lt;/b&gt;&lt;div&gt;&lt;b&gt;?&lt;/b&gt;&lt;/div&gt;" style="rhombus;whiteSpace=wrap;html=1;fillColor=#76608a;strokeColor=#432D57;fontColor=#ffffff;" parent="MtpwYPjAQFPa0YD4QaW7-1" vertex="1">
          <mxGeometry x="139" y="168" width="86" height="50" as="geometry" />
        </mxCell>
        <mxCell id="GVz6icC06-KffOMO9G0p-14" style="edgeStyle=orthogonalEdgeStyle;rounded=0;orthogonalLoop=1;jettySize=auto;html=1;entryX=0.5;entryY=0;entryDx=0;entryDy=0;" parent="MtpwYPjAQFPa0YD4QaW7-1" source="GVz6icC06-KffOMO9G0p-12" target="GVz6icC06-KffOMO9G0p-13" edge="1">
          <mxGeometry relative="1" as="geometry" />
        </mxCell>
        <mxCell id="bN9UESX81Irh_T9kolNh-1" value="&lt;b&gt;YES&lt;/b&gt;" style="edgeLabel;html=1;align=center;verticalAlign=middle;resizable=0;points=[];" parent="GVz6icC06-KffOMO9G0p-14" vertex="1" connectable="0">
          <mxGeometry x="-0.1857" y="-2" relative="1" as="geometry">
            <mxPoint as="offset" />
          </mxGeometry>
        </mxCell>
        <mxCell id="wUWmy_-UdDIfka9kt44g-5" style="edgeStyle=orthogonalEdgeStyle;rounded=0;orthogonalLoop=1;jettySize=auto;html=1;" edge="1" parent="MtpwYPjAQFPa0YD4QaW7-1" source="GVz6icC06-KffOMO9G0p-12" target="GVz6icC06-KffOMO9G0p-85">
          <mxGeometry relative="1" as="geometry">
            <mxPoint x="21" y="812" as="targetPoint" />
            <Array as="points">
              <mxPoint x="16" y="250" />
              <mxPoint x="16" y="780" />
            </Array>
          </mxGeometry>
        </mxCell>
        <mxCell id="wUWmy_-UdDIfka9kt44g-6" value="&lt;b&gt;NO&lt;/b&gt;" style="edgeLabel;html=1;align=center;verticalAlign=middle;resizable=0;points=[];" vertex="1" connectable="0" parent="wUWmy_-UdDIfka9kt44g-5">
          <mxGeometry x="-0.8572" y="-1" relative="1" as="geometry">
            <mxPoint as="offset" />
          </mxGeometry>
        </mxCell>
        <mxCell id="GVz6icC06-KffOMO9G0p-12" value="&lt;b&gt;Create&amp;nbsp;&lt;/b&gt;&lt;div&gt;&lt;b&gt;new Contest&lt;/b&gt;&lt;div&gt;&lt;b&gt;?&lt;/b&gt;&lt;/div&gt;&lt;/div&gt;" style="rhombus;whiteSpace=wrap;html=1;fillColor=#76608a;strokeColor=#432D57;fontColor=#ffffff;" parent="MtpwYPjAQFPa0YD4QaW7-1" vertex="1">
          <mxGeometry x="125" y="220" width="100" height="60" as="geometry" />
        </mxCell>
        <mxCell id="GVz6icC06-KffOMO9G0p-13" value="&lt;b&gt;&lt;font style=&quot;font-size: 11px;&quot;&gt;&amp;nbsp;Set Custom Problem?&lt;/font&gt;&lt;/b&gt;" style="rhombus;whiteSpace=wrap;html=1;fillColor=#76608a;strokeColor=#432D57;fontColor=#ffffff;" parent="MtpwYPjAQFPa0YD4QaW7-1" vertex="1">
          <mxGeometry x="250" y="220" width="90" height="60" as="geometry" />
        </mxCell>
        <mxCell id="bN9UESX81Irh_T9kolNh-29" style="edgeStyle=orthogonalEdgeStyle;rounded=0;orthogonalLoop=1;jettySize=auto;html=1;exitX=0.5;exitY=1;exitDx=0;exitDy=0;entryX=0.5;entryY=0;entryDx=0;entryDy=0;" parent="MtpwYPjAQFPa0YD4QaW7-1" source="GVz6icC06-KffOMO9G0p-40" target="GVz6icC06-KffOMO9G0p-45" edge="1">
          <mxGeometry relative="1" as="geometry" />
        </mxCell>
        <mxCell id="GVz6icC06-KffOMO9G0p-40" value="&lt;font style=&quot;font-size: 9px;&quot;&gt;Both individual&lt;/font&gt;&lt;div&gt;&lt;font style=&quot;font-size: 9px;&quot;&gt;or team&lt;/font&gt;&lt;/div&gt;" style="rhombus;whiteSpace=wrap;html=1;fillColor=#76608a;strokeColor=#432D57;fontColor=#ffffff;" parent="MtpwYPjAQFPa0YD4QaW7-1" vertex="1">
          <mxGeometry x="120" y="370" width="113.5" height="40" as="geometry" />
        </mxCell>
        <mxCell id="GVz6icC06-KffOMO9G0p-45" value="&lt;b style=&quot;background-color: initial;&quot;&gt;Individual&lt;/b&gt;&lt;div&gt;&lt;b style=&quot;background-color: initial;&quot;&gt;?&lt;/b&gt;&lt;/div&gt;" style="rhombus;whiteSpace=wrap;html=1;fillColor=#76608a;strokeColor=#432D57;fontColor=#ffffff;" parent="MtpwYPjAQFPa0YD4QaW7-1" vertex="1">
          <mxGeometry x="125" y="470" width="90" height="60" as="geometry" />
        </mxCell>
        <mxCell id="GVz6icC06-KffOMO9G0p-50" value="&lt;b&gt;&lt;font style=&quot;font-size: 10px;&quot;&gt;NO&lt;/font&gt;&lt;/b&gt;" style="text;html=1;align=center;verticalAlign=middle;whiteSpace=wrap;rounded=0;" parent="MtpwYPjAQFPa0YD4QaW7-1" vertex="1">
          <mxGeometry x="130" y="342.5" width="60" height="30" as="geometry" />
        </mxCell>
        <mxCell id="GVz6icC06-KffOMO9G0p-69" style="edgeStyle=orthogonalEdgeStyle;rounded=0;orthogonalLoop=1;jettySize=auto;html=1;exitX=0.5;exitY=1;exitDx=0;exitDy=0;entryX=0.5;entryY=0;entryDx=0;entryDy=0;" parent="MtpwYPjAQFPa0YD4QaW7-1" source="GVz6icC06-KffOMO9G0p-63" target="GVz6icC06-KffOMO9G0p-40" edge="1">
          <mxGeometry relative="1" as="geometry" />
        </mxCell>
        <mxCell id="GVz6icC06-KffOMO9G0p-80" style="edgeStyle=orthogonalEdgeStyle;rounded=0;orthogonalLoop=1;jettySize=auto;html=1;exitX=1;exitY=0.5;exitDx=0;exitDy=0;" parent="MtpwYPjAQFPa0YD4QaW7-1" source="GVz6icC06-KffOMO9G0p-63" edge="1">
          <mxGeometry relative="1" as="geometry">
            <mxPoint x="230" y="610" as="targetPoint" />
          </mxGeometry>
        </mxCell>
        <mxCell id="GVz6icC06-KffOMO9G0p-86" value="&lt;b&gt;YES&lt;/b&gt;" style="edgeLabel;html=1;align=center;verticalAlign=middle;resizable=0;points=[];" parent="GVz6icC06-KffOMO9G0p-80" vertex="1" connectable="0">
          <mxGeometry x="-0.722" y="4" relative="1" as="geometry">
            <mxPoint as="offset" />
          </mxGeometry>
        </mxCell>
        <mxCell id="GVz6icC06-KffOMO9G0p-63" value="&lt;b&gt;Already&lt;/b&gt;&lt;div&gt;&lt;b&gt;Registered?&lt;/b&gt;&lt;/div&gt;" style="rhombus;whiteSpace=wrap;html=1;fillColor=#76608a;strokeColor=#432D57;fontColor=#ffffff;" parent="MtpwYPjAQFPa0YD4QaW7-1" vertex="1">
          <mxGeometry x="120" y="300" width="117" height="54" as="geometry" />
        </mxCell>
        <mxCell id="bN9UESX81Irh_T9kolNh-14" style="edgeStyle=orthogonalEdgeStyle;rounded=0;orthogonalLoop=1;jettySize=auto;html=1;entryX=0.5;entryY=0;entryDx=0;entryDy=0;" parent="MtpwYPjAQFPa0YD4QaW7-1" source="GVz6icC06-KffOMO9G0p-82" target="bN9UESX81Irh_T9kolNh-8" edge="1">
          <mxGeometry relative="1" as="geometry">
            <Array as="points">
              <mxPoint x="203" y="615" />
              <mxPoint x="203" y="550" />
              <mxPoint x="135" y="550" />
            </Array>
          </mxGeometry>
        </mxCell>
        <mxCell id="GVz6icC06-KffOMO9G0p-82" value="" style="ellipse;whiteSpace=wrap;html=1;aspect=fixed;fillColor=#f8cecc;strokeColor=#b85450;" parent="MtpwYPjAQFPa0YD4QaW7-1" vertex="1">
          <mxGeometry x="225" y="610" width="10" height="10" as="geometry" />
        </mxCell>
        <mxCell id="GVz6icC06-KffOMO9G0p-85" value="&lt;b&gt;End&lt;/b&gt;" style="ellipse;whiteSpace=wrap;html=1;fillColor=#fff2cc;strokeColor=#d6b656;" parent="MtpwYPjAQFPa0YD4QaW7-1" vertex="1">
          <mxGeometry x="120" y="750" width="90" height="41" as="geometry" />
        </mxCell>
        <mxCell id="GVz6icC06-KffOMO9G0p-61" style="edgeStyle=orthogonalEdgeStyle;rounded=0;orthogonalLoop=1;jettySize=auto;html=1;entryX=0;entryY=0.5;entryDx=0;entryDy=0;" parent="MtpwYPjAQFPa0YD4QaW7-1" source="GVz6icC06-KffOMO9G0p-5" target="GVz6icC06-KffOMO9G0p-85" edge="1">
          <mxGeometry relative="1" as="geometry">
            <Array as="points">
              <mxPoint x="30" y="115" />
              <mxPoint x="30" y="771" />
            </Array>
          </mxGeometry>
        </mxCell>
        <mxCell id="GVz6icC06-KffOMO9G0p-62" value="&lt;b&gt;NO&lt;/b&gt;" style="edgeLabel;html=1;align=center;verticalAlign=middle;resizable=0;points=[];" parent="GVz6icC06-KffOMO9G0p-61" vertex="1" connectable="0">
          <mxGeometry x="-0.8246" y="-1" relative="1" as="geometry">
            <mxPoint as="offset" />
          </mxGeometry>
        </mxCell>
        <mxCell id="bN9UESX81Irh_T9kolNh-18" style="edgeStyle=orthogonalEdgeStyle;rounded=0;orthogonalLoop=1;jettySize=auto;html=1;entryX=0.5;entryY=1;entryDx=0;entryDy=0;" parent="MtpwYPjAQFPa0YD4QaW7-1" source="bN9UESX81Irh_T9kolNh-8" target="GVz6icC06-KffOMO9G0p-85" edge="1">
          <mxGeometry relative="1" as="geometry">
            <Array as="points">
              <mxPoint x="50" y="600" />
              <mxPoint x="50" y="810" />
              <mxPoint x="165" y="810" />
            </Array>
          </mxGeometry>
        </mxCell>
        <mxCell id="bN9UESX81Irh_T9kolNh-19" value="&lt;b&gt;NO&lt;/b&gt;" style="edgeLabel;html=1;align=center;verticalAlign=middle;resizable=0;points=[];" parent="bN9UESX81Irh_T9kolNh-18" vertex="1" connectable="0">
          <mxGeometry x="-0.3542" relative="1" as="geometry">
            <mxPoint as="offset" />
          </mxGeometry>
        </mxCell>
        <mxCell id="bN9UESX81Irh_T9kolNh-8" value="&lt;b&gt;Start&lt;/b&gt;&lt;div&gt;&lt;b&gt;contest?&lt;/b&gt;&lt;/div&gt;" style="rhombus;whiteSpace=wrap;html=1;fillColor=#76608a;strokeColor=#432D57;fontColor=#ffffff;" parent="MtpwYPjAQFPa0YD4QaW7-1" vertex="1">
          <mxGeometry x="90" y="570" width="90" height="60" as="geometry" />
        </mxCell>
        <mxCell id="bN9UESX81Irh_T9kolNh-27" style="edgeStyle=orthogonalEdgeStyle;rounded=0;orthogonalLoop=1;jettySize=auto;html=1;exitX=0;exitY=0.5;exitDx=0;exitDy=0;" parent="MtpwYPjAQFPa0YD4QaW7-1" source="bN9UESX81Irh_T9kolNh-13" target="GVz6icC06-KffOMO9G0p-85" edge="1">
          <mxGeometry relative="1" as="geometry" />
        </mxCell>
        <mxCell id="bN9UESX81Irh_T9kolNh-28" value="&lt;b&gt;YES&lt;/b&gt;" style="edgeLabel;html=1;align=center;verticalAlign=middle;resizable=0;points=[];" parent="bN9UESX81Irh_T9kolNh-27" vertex="1" connectable="0">
          <mxGeometry x="-0.3949" y="1" relative="1" as="geometry">
            <mxPoint as="offset" />
          </mxGeometry>
        </mxCell>
        <mxCell id="bN9UESX81Irh_T9kolNh-13" value="&lt;b&gt;End&lt;/b&gt;&lt;div&gt;&lt;b&gt;contest?&lt;/b&gt;&lt;/div&gt;" style="rhombus;whiteSpace=wrap;html=1;fillColor=#76608a;strokeColor=#432D57;fontColor=#ffffff;" parent="MtpwYPjAQFPa0YD4QaW7-1" vertex="1">
          <mxGeometry x="90" y="640" width="90" height="60" as="geometry" />
        </mxCell>
        <mxCell id="bN9UESX81Irh_T9kolNh-57" value="&lt;b&gt;&lt;font style=&quot;font-size: 10px;&quot;&gt;NO&lt;/font&gt;&lt;/b&gt;" style="text;html=1;align=center;verticalAlign=middle;whiteSpace=wrap;rounded=0;" parent="MtpwYPjAQFPa0YD4QaW7-1" vertex="1">
          <mxGeometry x="155" y="440" width="60" height="30" as="geometry" />
        </mxCell>
        <mxCell id="MtpwYPjAQFPa0YD4QaW7-2" value="Contestant" style="swimlane;whiteSpace=wrap;html=1;fillColor=#d0cee2;strokeColor=#56517e;" parent="1" vertex="1">
          <mxGeometry x="400" y="20" width="250" height="820" as="geometry" />
        </mxCell>
        <mxCell id="GVz6icC06-KffOMO9G0p-7" value="&lt;b&gt;Show contest details&lt;/b&gt;" style="rounded=0;whiteSpace=wrap;html=1;fillColor=#d5e8d4;strokeColor=#82b366;" parent="MtpwYPjAQFPa0YD4QaW7-2" vertex="1">
          <mxGeometry x="70" y="95" width="100" height="40" as="geometry" />
        </mxCell>
        <mxCell id="GVz6icC06-KffOMO9G0p-30" value="&lt;b&gt;Participate&lt;/b&gt;" style="rounded=0;whiteSpace=wrap;html=1;fillColor=#d5e8d4;strokeColor=#82b366;" parent="MtpwYPjAQFPa0YD4QaW7-2" vertex="1">
          <mxGeometry x="70" y="40" width="100" height="40" as="geometry" />
        </mxCell>
        <mxCell id="GVz6icC06-KffOMO9G0p-42" value="&lt;b&gt;Register&lt;/b&gt;" style="shape=parallelogram;perimeter=parallelogramPerimeter;whiteSpace=wrap;html=1;fixedSize=1;fillColor=#dae8fc;strokeColor=#6c8ebf;" parent="MtpwYPjAQFPa0YD4QaW7-2" vertex="1">
          <mxGeometry x="65" y="200" width="120" height="30" as="geometry" />
        </mxCell>
        <mxCell id="GVz6icC06-KffOMO9G0p-111" style="edgeStyle=orthogonalEdgeStyle;rounded=0;orthogonalLoop=1;jettySize=auto;html=1;entryX=0.5;entryY=0;entryDx=0;entryDy=0;" parent="MtpwYPjAQFPa0YD4QaW7-2" source="GVz6icC06-KffOMO9G0p-51" target="GVz6icC06-KffOMO9G0p-108" edge="1">
          <mxGeometry relative="1" as="geometry" />
        </mxCell>
        <mxCell id="GVz6icC06-KffOMO9G0p-51" value="&lt;b&gt;Individual Registration&lt;/b&gt;" style="shape=parallelogram;perimeter=parallelogramPerimeter;whiteSpace=wrap;html=1;fixedSize=1;fillColor=#dae8fc;strokeColor=#6c8ebf;" parent="MtpwYPjAQFPa0YD4QaW7-2" vertex="1">
          <mxGeometry x="70" y="440" width="120" height="40" as="geometry" />
        </mxCell>
        <mxCell id="GVz6icC06-KffOMO9G0p-110" style="edgeStyle=orthogonalEdgeStyle;rounded=0;orthogonalLoop=1;jettySize=auto;html=1;entryX=0;entryY=0.5;entryDx=0;entryDy=0;" parent="MtpwYPjAQFPa0YD4QaW7-2" source="GVz6icC06-KffOMO9G0p-54" target="GVz6icC06-KffOMO9G0p-108" edge="1">
          <mxGeometry relative="1" as="geometry" />
        </mxCell>
        <mxCell id="GVz6icC06-KffOMO9G0p-54" value="&lt;b&gt;Team&lt;/b&gt;&lt;div&gt;&lt;b&gt;&amp;nbsp;Registration&lt;/b&gt;&lt;/div&gt;" style="shape=parallelogram;perimeter=parallelogramPerimeter;whiteSpace=wrap;html=1;fixedSize=1;fillColor=#dae8fc;strokeColor=#6c8ebf;" parent="MtpwYPjAQFPa0YD4QaW7-2" vertex="1">
          <mxGeometry x="65" y="500" width="120" height="40" as="geometry" />
        </mxCell>
        <mxCell id="GVz6icC06-KffOMO9G0p-108" value="" style="ellipse;whiteSpace=wrap;html=1;aspect=fixed;fillColor=#f8cecc;strokeColor=#b85450;" parent="MtpwYPjAQFPa0YD4QaW7-2" vertex="1">
          <mxGeometry x="220" y="515" width="10" height="10" as="geometry" />
        </mxCell>
        <mxCell id="bN9UESX81Irh_T9kolNh-12" style="edgeStyle=orthogonalEdgeStyle;rounded=0;orthogonalLoop=1;jettySize=auto;html=1;entryX=0.5;entryY=0;entryDx=0;entryDy=0;" parent="MtpwYPjAQFPa0YD4QaW7-2" source="bN9UESX81Irh_T9kolNh-10" target="bN9UESX81Irh_T9kolNh-11" edge="1">
          <mxGeometry relative="1" as="geometry" />
        </mxCell>
        <mxCell id="bN9UESX81Irh_T9kolNh-10" value="&lt;b&gt;Show problems&lt;/b&gt;" style="rounded=0;whiteSpace=wrap;html=1;fillColor=#d5e8d4;strokeColor=#82b366;" parent="MtpwYPjAQFPa0YD4QaW7-2" vertex="1">
          <mxGeometry x="85" y="630" width="100" height="40" as="geometry" />
        </mxCell>
        <mxCell id="bN9UESX81Irh_T9kolNh-11" value="&lt;b&gt;Submit&amp;nbsp;&lt;/b&gt;&lt;div&gt;&lt;b&gt;solutions&lt;/b&gt;&lt;/div&gt;" style="shape=parallelogram;perimeter=parallelogramPerimeter;whiteSpace=wrap;html=1;fixedSize=1;fillColor=#dae8fc;strokeColor=#6c8ebf;" parent="MtpwYPjAQFPa0YD4QaW7-2" vertex="1">
          <mxGeometry x="75" y="690" width="120" height="40" as="geometry" />
        </mxCell>
        <mxCell id="MtpwYPjAQFPa0YD4QaW7-3" value="Problem-Setter" style="swimlane;whiteSpace=wrap;html=1;fillColor=#d0cee2;strokeColor=#56517e;" parent="1" vertex="1">
          <mxGeometry x="650" y="20" width="210" height="820" as="geometry" />
        </mxCell>
        <mxCell id="GVz6icC06-KffOMO9G0p-10" value="&lt;b&gt;Launch&amp;nbsp;&lt;/b&gt;&lt;div&gt;&lt;b&gt;Contest&lt;/b&gt;&lt;/div&gt;" style="rounded=0;whiteSpace=wrap;html=1;fillColor=#d5e8d4;strokeColor=#82b366;align=center;" parent="MtpwYPjAQFPa0YD4QaW7-3" vertex="1">
          <mxGeometry x="70" y="165" width="100" height="40" as="geometry" />
        </mxCell>
        <mxCell id="GVz6icC06-KffOMO9G0p-18" style="edgeStyle=orthogonalEdgeStyle;rounded=0;orthogonalLoop=1;jettySize=auto;html=1;entryX=0.5;entryY=0;entryDx=0;entryDy=0;" parent="MtpwYPjAQFPa0YD4QaW7-3" source="GVz6icC06-KffOMO9G0p-15" target="GVz6icC06-KffOMO9G0p-17" edge="1">
          <mxGeometry relative="1" as="geometry" />
        </mxCell>
        <mxCell id="GVz6icC06-KffOMO9G0p-15" value="&lt;b&gt;Problem setting&lt;/b&gt;" style="rounded=0;whiteSpace=wrap;html=1;fillColor=#d5e8d4;strokeColor=#82b366;align=center;" parent="MtpwYPjAQFPa0YD4QaW7-3" vertex="1">
          <mxGeometry x="70" y="312.5" width="100" height="35" as="geometry" />
        </mxCell>
        <mxCell id="GVz6icC06-KffOMO9G0p-17" value="&lt;b&gt;Contest details submission&lt;/b&gt;" style="rounded=0;whiteSpace=wrap;html=1;fillColor=#d5e8d4;strokeColor=#82b366;align=center;" parent="MtpwYPjAQFPa0YD4QaW7-3" vertex="1">
          <mxGeometry x="90" y="380" width="100" height="40" as="geometry" />
        </mxCell>
        <mxCell id="GVz6icC06-KffOMO9G0p-2" value="Admin" style="swimlane;whiteSpace=wrap;html=1;fillColor=#d0cee2;strokeColor=#56517e;" parent="1" vertex="1">
          <mxGeometry x="860" y="20" width="200" height="820" as="geometry" />
        </mxCell>
        <mxCell id="GVz6icC06-KffOMO9G0p-23" value="&lt;b&gt;Is Approve?&lt;/b&gt;" style="rhombus;whiteSpace=wrap;html=1;fillColor=#76608a;strokeColor=#432D57;fontColor=#ffffff;" parent="GVz6icC06-KffOMO9G0p-2" vertex="1">
          <mxGeometry x="60" y="130" width="100" height="70" as="geometry" />
        </mxCell>
        <mxCell id="GVz6icC06-KffOMO9G0p-34" value="&lt;b&gt;Host&lt;/b&gt;" style="rounded=0;whiteSpace=wrap;html=1;fillColor=#d5e8d4;strokeColor=#82b366;" parent="GVz6icC06-KffOMO9G0p-2" vertex="1">
          <mxGeometry x="-50" y="50" width="100" height="40" as="geometry" />
        </mxCell>
        <mxCell id="GVz6icC06-KffOMO9G0p-8" style="edgeStyle=orthogonalEdgeStyle;rounded=0;orthogonalLoop=1;jettySize=auto;html=1;entryX=0;entryY=0.5;entryDx=0;entryDy=0;" parent="1" source="GVz6icC06-KffOMO9G0p-5" target="GVz6icC06-KffOMO9G0p-7" edge="1">
          <mxGeometry relative="1" as="geometry" />
        </mxCell>
        <mxCell id="GVz6icC06-KffOMO9G0p-58" value="&lt;b&gt;YES&lt;/b&gt;" style="edgeLabel;html=1;align=center;verticalAlign=middle;resizable=0;points=[];" parent="GVz6icC06-KffOMO9G0p-8" vertex="1" connectable="0">
          <mxGeometry x="-0.354" y="-1" relative="1" as="geometry">
            <mxPoint as="offset" />
          </mxGeometry>
        </mxCell>
        <mxCell id="GVz6icC06-KffOMO9G0p-11" style="edgeStyle=orthogonalEdgeStyle;rounded=0;orthogonalLoop=1;jettySize=auto;html=1;entryX=0;entryY=0.5;entryDx=0;entryDy=0;" parent="1" source="GVz6icC06-KffOMO9G0p-9" target="GVz6icC06-KffOMO9G0p-10" edge="1">
          <mxGeometry relative="1" as="geometry" />
        </mxCell>
        <mxCell id="GVz6icC06-KffOMO9G0p-113" value="&lt;b&gt;YES&lt;/b&gt;" style="edgeLabel;html=1;align=center;verticalAlign=middle;resizable=0;points=[];" parent="GVz6icC06-KffOMO9G0p-11" vertex="1" connectable="0">
          <mxGeometry x="-0.5658" y="4" relative="1" as="geometry">
            <mxPoint as="offset" />
          </mxGeometry>
        </mxCell>
        <mxCell id="GVz6icC06-KffOMO9G0p-16" style="edgeStyle=orthogonalEdgeStyle;rounded=0;orthogonalLoop=1;jettySize=auto;html=1;entryX=0;entryY=0.25;entryDx=0;entryDy=0;" parent="1" source="GVz6icC06-KffOMO9G0p-13" target="GVz6icC06-KffOMO9G0p-15" edge="1">
          <mxGeometry relative="1" as="geometry" />
        </mxCell>
        <mxCell id="bN9UESX81Irh_T9kolNh-4" value="&lt;b&gt;YES&lt;/b&gt;" style="edgeLabel;html=1;align=center;verticalAlign=middle;resizable=0;points=[];" parent="GVz6icC06-KffOMO9G0p-16" vertex="1" connectable="0">
          <mxGeometry x="-0.6073" y="1" relative="1" as="geometry">
            <mxPoint as="offset" />
          </mxGeometry>
        </mxCell>
        <mxCell id="GVz6icC06-KffOMO9G0p-24" style="edgeStyle=orthogonalEdgeStyle;rounded=0;orthogonalLoop=1;jettySize=auto;html=1;entryX=0;entryY=0.5;entryDx=0;entryDy=0;" parent="1" source="GVz6icC06-KffOMO9G0p-17" target="GVz6icC06-KffOMO9G0p-23" edge="1">
          <mxGeometry relative="1" as="geometry">
            <Array as="points">
              <mxPoint x="872" y="420" />
              <mxPoint x="872" y="185" />
            </Array>
          </mxGeometry>
        </mxCell>
        <mxCell id="GVz6icC06-KffOMO9G0p-25" style="edgeStyle=orthogonalEdgeStyle;rounded=0;orthogonalLoop=1;jettySize=auto;html=1;exitX=0.5;exitY=1;exitDx=0;exitDy=0;entryX=0;entryY=0.5;entryDx=0;entryDy=0;" parent="1" source="GVz6icC06-KffOMO9G0p-23" target="GVz6icC06-KffOMO9G0p-9" edge="1">
          <mxGeometry relative="1" as="geometry">
            <Array as="points">
              <mxPoint x="970" y="450" />
              <mxPoint x="140" y="450" />
              <mxPoint x="140" y="205" />
              <mxPoint x="175" y="205" />
            </Array>
          </mxGeometry>
        </mxCell>
        <mxCell id="GVz6icC06-KffOMO9G0p-26" value="&lt;b&gt;YES&lt;/b&gt;" style="edgeLabel;html=1;align=center;verticalAlign=middle;resizable=0;points=[];" parent="GVz6icC06-KffOMO9G0p-25" vertex="1" connectable="0">
          <mxGeometry x="-0.2136" y="5" relative="1" as="geometry">
            <mxPoint x="299" y="-135" as="offset" />
          </mxGeometry>
        </mxCell>
        <mxCell id="GVz6icC06-KffOMO9G0p-31" style="edgeStyle=orthogonalEdgeStyle;rounded=0;orthogonalLoop=1;jettySize=auto;html=1;entryX=0.5;entryY=0;entryDx=0;entryDy=0;" parent="1" source="GVz6icC06-KffOMO9G0p-30" target="GVz6icC06-KffOMO9G0p-5" edge="1">
          <mxGeometry relative="1" as="geometry" />
        </mxCell>
        <mxCell id="GVz6icC06-KffOMO9G0p-33" style="edgeStyle=orthogonalEdgeStyle;rounded=0;orthogonalLoop=1;jettySize=auto;html=1;entryX=0.75;entryY=0;entryDx=0;entryDy=0;" parent="1" source="GVz6icC06-KffOMO9G0p-3" target="GVz6icC06-KffOMO9G0p-30" edge="1">
          <mxGeometry relative="1" as="geometry">
            <Array as="points">
              <mxPoint x="380" y="60" />
              <mxPoint x="380" y="50" />
              <mxPoint x="545" y="50" />
            </Array>
          </mxGeometry>
        </mxCell>
        <mxCell id="GVz6icC06-KffOMO9G0p-35" value="" style="endArrow=none;html=1;rounded=0;" parent="1" edge="1">
          <mxGeometry width="50" height="50" relative="1" as="geometry">
            <mxPoint x="540" y="50" as="sourcePoint" />
            <mxPoint x="900" y="50" as="targetPoint" />
          </mxGeometry>
        </mxCell>
        <mxCell id="GVz6icC06-KffOMO9G0p-36" value="" style="endArrow=classic;html=1;rounded=0;entryX=0.888;entryY=0.025;entryDx=0;entryDy=0;entryPerimeter=0;" parent="1" target="GVz6icC06-KffOMO9G0p-34" edge="1">
          <mxGeometry width="50" height="50" relative="1" as="geometry">
            <mxPoint x="900" y="50" as="sourcePoint" />
            <mxPoint x="950" as="targetPoint" />
          </mxGeometry>
        </mxCell>
        <mxCell id="GVz6icC06-KffOMO9G0p-41" style="edgeStyle=orthogonalEdgeStyle;rounded=0;orthogonalLoop=1;jettySize=auto;html=1;exitX=0;exitY=0.75;exitDx=0;exitDy=0;entryX=0;entryY=0.5;entryDx=0;entryDy=0;" parent="1" source="GVz6icC06-KffOMO9G0p-7" target="GVz6icC06-KffOMO9G0p-63" edge="1">
          <mxGeometry relative="1" as="geometry">
            <Array as="points">
              <mxPoint x="450" y="145" />
              <mxPoint x="450" y="170" />
              <mxPoint x="110" y="170" />
              <mxPoint x="110" y="347" />
            </Array>
          </mxGeometry>
        </mxCell>
        <mxCell id="GVz6icC06-KffOMO9G0p-43" style="edgeStyle=orthogonalEdgeStyle;rounded=0;orthogonalLoop=1;jettySize=auto;html=1;exitX=1;exitY=0.5;exitDx=0;exitDy=0;" parent="1" source="GVz6icC06-KffOMO9G0p-40" target="GVz6icC06-KffOMO9G0p-42" edge="1">
          <mxGeometry relative="1" as="geometry" />
        </mxCell>
        <mxCell id="GVz6icC06-KffOMO9G0p-44" value="&lt;b&gt;YES&lt;/b&gt;" style="edgeLabel;html=1;align=center;verticalAlign=middle;resizable=0;points=[];" parent="GVz6icC06-KffOMO9G0p-43" vertex="1" connectable="0">
          <mxGeometry x="-0.7576" y="-1" relative="1" as="geometry">
            <mxPoint x="193" y="-37" as="offset" />
          </mxGeometry>
        </mxCell>
        <mxCell id="GVz6icC06-KffOMO9G0p-52" style="edgeStyle=orthogonalEdgeStyle;rounded=0;orthogonalLoop=1;jettySize=auto;html=1;entryX=0;entryY=0.25;entryDx=0;entryDy=0;" parent="1" source="GVz6icC06-KffOMO9G0p-45" target="GVz6icC06-KffOMO9G0p-51" edge="1">
          <mxGeometry relative="1" as="geometry" />
        </mxCell>
        <mxCell id="GVz6icC06-KffOMO9G0p-53" value="&lt;b&gt;YES&lt;/b&gt;" style="edgeLabel;html=1;align=center;verticalAlign=middle;resizable=0;points=[];" parent="GVz6icC06-KffOMO9G0p-52" vertex="1" connectable="0">
          <mxGeometry x="-0.4917" y="2" relative="1" as="geometry">
            <mxPoint as="offset" />
          </mxGeometry>
        </mxCell>
        <mxCell id="GVz6icC06-KffOMO9G0p-55" style="edgeStyle=orthogonalEdgeStyle;rounded=0;orthogonalLoop=1;jettySize=auto;html=1;" parent="1" source="GVz6icC06-KffOMO9G0p-45" target="GVz6icC06-KffOMO9G0p-54" edge="1">
          <mxGeometry relative="1" as="geometry">
            <Array as="points">
              <mxPoint x="220" y="560" />
              <mxPoint x="365" y="560" />
              <mxPoint x="365" y="540" />
            </Array>
          </mxGeometry>
        </mxCell>
        <mxCell id="GVz6icC06-KffOMO9G0p-56" value="&lt;b&gt;NO&lt;/b&gt;" style="edgeLabel;html=1;align=center;verticalAlign=middle;resizable=0;points=[];" parent="GVz6icC06-KffOMO9G0p-55" vertex="1" connectable="0">
          <mxGeometry x="-0.2637" y="-2" relative="1" as="geometry">
            <mxPoint as="offset" />
          </mxGeometry>
        </mxCell>
        <mxCell id="GVz6icC06-KffOMO9G0p-57" style="edgeStyle=orthogonalEdgeStyle;rounded=0;orthogonalLoop=1;jettySize=auto;html=1;entryX=1;entryY=0.25;entryDx=0;entryDy=0;" parent="1" source="GVz6icC06-KffOMO9G0p-10" target="GVz6icC06-KffOMO9G0p-30" edge="1">
          <mxGeometry relative="1" as="geometry">
            <Array as="points">
              <mxPoint x="760" y="70" />
            </Array>
          </mxGeometry>
        </mxCell>
        <mxCell id="GVz6icC06-KffOMO9G0p-112" style="edgeStyle=orthogonalEdgeStyle;rounded=0;orthogonalLoop=1;jettySize=auto;html=1;entryX=1;entryY=0.5;entryDx=0;entryDy=0;" parent="1" source="GVz6icC06-KffOMO9G0p-108" target="GVz6icC06-KffOMO9G0p-82" edge="1">
          <mxGeometry relative="1" as="geometry">
            <Array as="points">
              <mxPoint x="625" y="635" />
            </Array>
          </mxGeometry>
        </mxCell>
        <mxCell id="bN9UESX81Irh_T9kolNh-5" style="edgeStyle=orthogonalEdgeStyle;rounded=0;orthogonalLoop=1;jettySize=auto;html=1;exitX=0.5;exitY=1;exitDx=0;exitDy=0;entryX=0;entryY=0.5;entryDx=0;entryDy=0;" parent="1" source="GVz6icC06-KffOMO9G0p-13" target="GVz6icC06-KffOMO9G0p-17" edge="1">
          <mxGeometry relative="1" as="geometry">
            <Array as="points">
              <mxPoint x="345" y="400" />
              <mxPoint x="720" y="400" />
            </Array>
          </mxGeometry>
        </mxCell>
        <mxCell id="bN9UESX81Irh_T9kolNh-6" value="&lt;b&gt;NO&lt;/b&gt;" style="edgeLabel;html=1;align=center;verticalAlign=middle;resizable=0;points=[];" parent="bN9UESX81Irh_T9kolNh-5" vertex="1" connectable="0">
          <mxGeometry x="-0.8392" y="3" relative="1" as="geometry">
            <mxPoint as="offset" />
          </mxGeometry>
        </mxCell>
        <mxCell id="bN9UESX81Irh_T9kolNh-7" style="edgeStyle=orthogonalEdgeStyle;rounded=0;orthogonalLoop=1;jettySize=auto;html=1;entryX=1;entryY=0.5;entryDx=0;entryDy=0;" parent="1" target="GVz6icC06-KffOMO9G0p-85" edge="1">
          <mxGeometry relative="1" as="geometry">
            <Array as="points">
              <mxPoint x="1075" y="490" />
              <mxPoint x="1195" y="490" />
              <mxPoint x="1195" y="791" />
            </Array>
            <mxPoint x="1075" y="483" as="sourcePoint" />
          </mxGeometry>
        </mxCell>
        <mxCell id="bN9UESX81Irh_T9kolNh-16" style="edgeStyle=orthogonalEdgeStyle;rounded=0;orthogonalLoop=1;jettySize=auto;html=1;exitX=1;exitY=0.5;exitDx=0;exitDy=0;entryX=0;entryY=0.5;entryDx=0;entryDy=0;" parent="1" source="bN9UESX81Irh_T9kolNh-8" target="ogwHL6n1cYPlVt01UVvh-7" edge="1">
          <mxGeometry relative="1" as="geometry">
            <Array as="points">
              <mxPoint x="240" y="620" />
              <mxPoint x="240" y="646" />
              <mxPoint x="485" y="646" />
              <mxPoint x="485" y="593" />
            </Array>
          </mxGeometry>
        </mxCell>
        <mxCell id="bN9UESX81Irh_T9kolNh-17" value="&lt;b&gt;YES&lt;/b&gt;" style="edgeLabel;html=1;align=center;verticalAlign=middle;resizable=0;points=[];" parent="bN9UESX81Irh_T9kolNh-16" vertex="1" connectable="0">
          <mxGeometry x="0.0527" relative="1" as="geometry">
            <mxPoint x="107" y="1" as="offset" />
          </mxGeometry>
        </mxCell>
        <mxCell id="bN9UESX81Irh_T9kolNh-23" style="edgeStyle=orthogonalEdgeStyle;rounded=0;orthogonalLoop=1;jettySize=auto;html=1;exitX=1;exitY=0.5;exitDx=0;exitDy=0;entryX=0;entryY=0.25;entryDx=0;entryDy=0;" parent="1" source="bN9UESX81Irh_T9kolNh-13" target="bN9UESX81Irh_T9kolNh-10" edge="1">
          <mxGeometry relative="1" as="geometry">
            <Array as="points">
              <mxPoint x="230" y="710" />
              <mxPoint x="380" y="710" />
              <mxPoint x="380" y="660" />
            </Array>
          </mxGeometry>
        </mxCell>
        <mxCell id="bN9UESX81Irh_T9kolNh-24" value="&lt;b&gt;NO&lt;/b&gt;" style="edgeLabel;html=1;align=center;verticalAlign=middle;resizable=0;points=[];" parent="bN9UESX81Irh_T9kolNh-23" vertex="1" connectable="0">
          <mxGeometry x="-0.4228" y="-2" relative="1" as="geometry">
            <mxPoint as="offset" />
          </mxGeometry>
        </mxCell>
        <mxCell id="bN9UESX81Irh_T9kolNh-26" style="edgeStyle=orthogonalEdgeStyle;rounded=0;orthogonalLoop=1;jettySize=auto;html=1;exitX=0;exitY=0.5;exitDx=0;exitDy=0;entryX=0.5;entryY=1;entryDx=0;entryDy=0;" parent="1" source="bN9UESX81Irh_T9kolNh-11" target="bN9UESX81Irh_T9kolNh-13" edge="1">
          <mxGeometry relative="1" as="geometry">
            <Array as="points">
              <mxPoint x="470" y="730" />
              <mxPoint x="470" y="740" />
              <mxPoint x="185" y="740" />
            </Array>
          </mxGeometry>
        </mxCell>
        <mxCell id="ogwHL6n1cYPlVt01UVvh-1" value="Email" style="swimlane;whiteSpace=wrap;html=1;fillColor=#d0cee2;strokeColor=#56517e;" parent="1" vertex="1">
          <mxGeometry x="1060" y="20" width="140" height="820" as="geometry" />
        </mxCell>
        <mxCell id="ogwHL6n1cYPlVt01UVvh-2" value="&lt;b&gt;Rejection&lt;/b&gt;&lt;div&gt;&lt;b&gt;Notification&lt;/b&gt;&lt;/div&gt;" style="rounded=0;whiteSpace=wrap;html=1;fillColor=#d5e8d4;strokeColor=#82b366;align=center;" parent="ogwHL6n1cYPlVt01UVvh-1" vertex="1">
          <mxGeometry x="18" y="447" width="106" height="40" as="geometry" />
        </mxCell>
        <mxCell id="ogwHL6n1cYPlVt01UVvh-7" value="&lt;b&gt;Contest notification&lt;/b&gt;" style="rounded=0;whiteSpace=wrap;html=1;fillColor=#d5e8d4;strokeColor=#82b366;align=center;" parent="ogwHL6n1cYPlVt01UVvh-1" vertex="1">
          <mxGeometry x="30.5" y="553" width="81" height="40" as="geometry" />
        </mxCell>
        <mxCell id="ogwHL6n1cYPlVt01UVvh-3" style="edgeStyle=orthogonalEdgeStyle;rounded=0;orthogonalLoop=1;jettySize=auto;html=1;entryX=0.616;entryY=0.07;entryDx=0;entryDy=0;entryPerimeter=0;" parent="1" source="GVz6icC06-KffOMO9G0p-23" target="ogwHL6n1cYPlVt01UVvh-2" edge="1">
          <mxGeometry relative="1" as="geometry" />
        </mxCell>
        <mxCell id="ogwHL6n1cYPlVt01UVvh-4" value="&lt;b&gt;NO&lt;/b&gt;" style="edgeLabel;html=1;align=center;verticalAlign=middle;resizable=0;points=[];" parent="ogwHL6n1cYPlVt01UVvh-3" vertex="1" connectable="0">
          <mxGeometry x="0.1751" y="2" relative="1" as="geometry">
            <mxPoint as="offset" />
          </mxGeometry>
        </mxCell>
        <mxCell id="ogwHL6n1cYPlVt01UVvh-8" style="edgeStyle=orthogonalEdgeStyle;rounded=0;orthogonalLoop=1;jettySize=auto;html=1;entryX=1;entryY=0.75;entryDx=0;entryDy=0;" parent="1" source="ogwHL6n1cYPlVt01UVvh-7" target="bN9UESX81Irh_T9kolNh-10" edge="1">
          <mxGeometry relative="1" as="geometry">
            <Array as="points">
              <mxPoint x="1139" y="680" />
            </Array>
          </mxGeometry>
        </mxCell>
        <mxCell id="wUWmy_-UdDIfka9kt44g-3" style="edgeStyle=orthogonalEdgeStyle;rounded=0;orthogonalLoop=1;jettySize=auto;html=1;" edge="1" parent="1" source="GVz6icC06-KffOMO9G0p-34" target="GVz6icC06-KffOMO9G0p-9">
          <mxGeometry relative="1" as="geometry">
            <mxPoint x="586.800048828125" y="183.39999389648438" as="targetPoint" />
            <Array as="points">
              <mxPoint x="785" y="90" />
              <mxPoint x="785" y="173" />
              <mxPoint x="225" y="173" />
            </Array>
          </mxGeometry>
        </mxCell>
        <mxCell id="wUWmy_-UdDIfka9kt44g-4" style="edgeStyle=orthogonalEdgeStyle;rounded=0;orthogonalLoop=1;jettySize=auto;html=1;exitX=0.75;exitY=1;exitDx=0;exitDy=0;entryX=0.5;entryY=1;entryDx=0;entryDy=0;" edge="1" parent="1" source="GVz6icC06-KffOMO9G0p-34" target="GVz6icC06-KffOMO9G0p-12">
          <mxGeometry relative="1" as="geometry">
            <Array as="points">
              <mxPoint x="891" y="110" />
              <mxPoint x="891" y="315" />
              <mxPoint x="225" y="315" />
            </Array>
          </mxGeometry>
        </mxCell>
      </root>
    </mxGraphModel>
  </diagram>
</mxfile>
